HIERARCHY
ROOT Hips
{
    OFFSET 0.000000 0.000000 0.000000
    CHANNELS 6 Xposition Yposition Zposition Zrotation Xrotation Yrotation
    JOINT Spine
    {
        OFFSET -0.000000 0.068295 0.000000
        CHANNELS 3 Zrotation Xrotation Yrotation
        JOINT Spine1
        {
            OFFSET -0.000000 0.198479 0.000000
            CHANNELS 3 Zrotation Xrotation Yrotation
            JOINT Neck
            {
                OFFSET -0.000000 0.215136 0.000000
                CHANNELS 3 Zrotation Xrotation Yrotation
                JOINT Head
                {
                    OFFSET -0.000000 0.090366 0.016657
                    CHANNELS 3 Zrotation Xrotation Yrotation
                    End Site
                    {
                        OFFSET -0.000000 0.166573 0.000000
                    }
                }
            }
            JOINT LeftShoulder
            {
                OFFSET 0.033522 0.175145 -0.001055
                CHANNELS 3 Zrotation Xrotation Yrotation
                JOINT LeftArm
                {
                    OFFSET 0.121214 0.000000 0.000000
                    CHANNELS 3 Zrotation Xrotation Yrotation
                    JOINT LeftForeArm
                    {
                        OFFSET 0.261115 0.000000 0.000000
                        CHANNELS 3 Zrotation Xrotation Yrotation
                        JOINT LeftHand
                        {
                            OFFSET 0.230096 0.000000 0.000000
                            CHANNELS 3 Zrotation Xrotation Yrotation
                            End Site
                            {
                                OFFSET 0.000000 -0.124930 0.000000
                            }
                        }
                    }
                }
            }
            JOINT RightShoulder
            {
                OFFSET -0.033103 0.175145 -0.001055
                CHANNELS 3 Zrotation Xrotation Yrotation
                JOINT RightArm
                {
                    OFFSET -0.121214 0.000000 0.000000
                    CHANNELS 3 Zrotation Xrotation Yrotation
                    JOINT RightForeArm
                    {
                        OFFSET -0.261115 0.000000 0.000000
                        CHANNELS 3 Zrotation Xrotation Yrotation
                        JOINT RightHand
                        {
                            OFFSET -0.230096 0.000000 0.000000
                            CHANNELS 3 Zrotation Xrotation Yrotation
                            End Site
                            {
                                OFFSET -0.000000 -0.124930 0.000000
                            }
                        }
                    }
                }
            }
        }
    }
    JOINT LeftUpLeg
    {
        OFFSET 0.083287 0.000000 0.000000
        CHANNELS 3 Zrotation Xrotation Yrotation
        JOINT LeftLeg
        {
            OFFSET -0.000000 -0.281128 0.000000
            CHANNELS 3 Zrotation Xrotation Yrotation
            JOINT LeftFoot
            {
                OFFSET -0.000000 -0.491911 0.000000
                CHANNELS 3 Zrotation Xrotation Yrotation
                JOINT LeftToeBase
                {
                    OFFSET -0.000000 -0.054136 0.124930
                    CHANNELS 3 Zrotation Xrotation Yrotation
                    End Site
                    {
                        OFFSET -0.000000 0.000000 0.033315
                    }
                }
            }
        }
    }
    JOINT RightUpLeg
    {
        OFFSET -0.083287 0.000000 0.000000
        CHANNELS 3 Zrotation Xrotation Yrotation
        JOINT RightLeg
        {
            OFFSET -0.000000 -0.281128 0.000000
            CHANNELS 3 Zrotation Xrotation Yrotation
            JOINT RightFoot
            {
                OFFSET -0.000000 -0.491911 0.000000
                CHANNELS 3 Zrotation Xrotation Yrotation
                JOINT RightToeBase
                {
                    OFFSET -0.000000 -0.054136 0.124930
                    CHANNELS 3 Zrotation Xrotation Yrotation
                    End Site
                    {
                        OFFSET -0.000000 0.000000 0.033315
                    }
                }
            }
        }
    }
}
MOTION
Frames:    5
Frame Time:    0.010000
0.094423    0.817138    0.037329    -5.949507    3.155715    -96.730637    3.092819    4.937848    2.477440    -5.142790    -1.043772    0.823360    2.826731    -1.146056    1.239715    -3.689108    -2.134326    2.037584    17.079309    0.670178    1.109943    -20.802198    -4.008883    -2.566706    0.973906    4.503256    -2.470710    97.505333    1.313514    -4.610360    -15.146193    -2.104323    3.133972    21.075735    4.300176    -0.261215    0.230187    -2.208277    -5.704139    -92.824524    -1.086327    -2.223606    2.291234    14.387686    0.591993    -1.303550    0.173165    -0.476305    8.524352    -7.966125    54.166771    0.000000    0.000000    0.000000    5.327548    12.097538    -4.369401    -0.603577    3.005390    -6.741672    -4.022838    -13.701561    -35.957291    0.000000    0.000000    0.000000    
0.094393    0.817099    0.037057    -5.917003    3.159069    -96.722527    3.085231    4.911887    2.468267    -5.163053    -1.024678    0.820649    2.648768    -1.073972    1.265275    -3.453387    -2.269969    2.013571    17.075222    0.645602    1.128649    -20.813366    -3.948727    -2.576251    1.175161    5.036548    -2.247072    96.939453    -0.001553    -5.059433    -15.170106    -2.087239    3.123384    21.089085    4.309247    -0.259852    0.246264    -2.212251    -5.715279    -92.838943    -1.062052    -2.226278    2.327356    14.368522    0.588092    -1.311901    0.156365    -0.501696    8.548304    -7.969628    54.194221    0.000000    0.000000    0.000000    5.369071    12.100991    -4.385112    -0.619149    2.955192    -6.748567    -4.025772    -13.673950    -35.978664    0.000000    0.000000    0.000000    
0.094360    0.817105    0.036834    -5.894802    3.157260    -96.703224    3.085115    4.893464    2.452520    -5.206906    -1.014027    0.815374    2.616082    -1.084925    1.313090    -3.417556    -2.226568    2.056010    17.063715    0.666238    1.127250    -20.818348    -3.848685    -2.625456    1.233739    5.002519    -2.164958    96.871544    -0.064366    -5.021875    -15.171373    -2.059752    3.123995    21.093142    4.272208    -0.267597    0.253660    -2.192275    -5.722101    -92.822174    -1.048902    -2.205489    2.332532    14.352079    0.569189    -1.286368    0.147153    -0.457397    8.522779    -7.991621    54.144821    0.000000    0.000000    0.000000    5.393925    12.123919    -4.389410    -0.619018    2.892017    -6.774119    -4.018732    -13.696078    -35.977089    0.000000    0.000000    0.000000    
0.094319    0.817090    0.036589    -5.866745    3.158016    -96.689529    3.071251    4.864527    2.450831    -5.227060    -0.994674    0.814998    2.558830    -1.119696    1.360788    -3.305351    -2.166781    2.086788    17.062281    0.629912    1.119748    -20.840511    -3.769000    -2.651724    1.097795    4.414253    -2.366434    97.495720    1.260808    -4.519450    -15.167933    -2.055585    3.102338    21.100868    4.348984    -0.248578    0.220096    -2.255233    -5.757462    -92.817673    -1.038524    -2.269738    2.365072    14.328528    0.564096    -1.297036    0.146499    -0.472238    8.543510    -7.976502    54.153606    0.000000    0.000000    0.000000    5.430067    12.121700    -4.420155    -0.635351    2.856803    -6.800357    -4.009381    -13.690900    -35.955608    0.000000    0.000000    0.000000    
0.094281    0.817085    0.036354    -5.844758    3.162612    -96.665749    3.065907    4.856992    2.440547    -5.252429    -1.005636    0.810735    2.549798    -1.116213    1.381471    -3.298581    -2.156875    2.106715    17.044930    0.663770    1.115858    -20.834826    -3.782372    -2.685692    1.128053    4.398326    -2.364202    97.530281    1.290383    -4.506459    -15.159381    -2.055470    3.093262    21.088039    4.322827    -0.264925    0.260429    -2.176281    -5.774344    -92.921600    -0.953507    -2.187522    2.393708    14.305470    0.572738    -1.293609    0.149973    -0.493888    8.530966    -8.014701    54.136475    0.000000    0.000000    0.000000    5.463004    12.131497    -4.444928    -0.638001    2.816858    -6.801620    -4.001041    -13.686977    -35.964256    0.000000    0.000000    0.000000    
